<svg style="" width="15.000000" height="13.500000" version="1.1" xmlns="http://www.w3.org/2000/svg">
<path d="M0.750000 1.500000 L14.250000 1.500000 C14.453126 1.500000 14.628906 1.425782 14.777344 1.277344 C14.925782 1.128906 15.000000 0.953126 15.000000 0.750000 C15.000000 0.546874 14.925782 0.371094 14.777344 0.222656 C14.628906 0.074218 14.453126 -0.000000 14.250000 -0.000000 L0.750000 -0.000000 C0.546874 -0.000000 0.371094 0.074218 0.222656 0.222656 C0.074218 0.371094 0.000000 0.546874 0.000000 0.750000 C0.000000 0.953126 0.074218 1.128906 0.222656 1.277344 C0.371094 1.425782 0.546874 1.500000 0.750000 1.500000 Z M14.250000 12.000000 L0.750000 12.000000 C0.546874 12.000000 0.371094 12.074218 0.222656 12.222656 C0.074218 12.371094 0.000000 12.546874 0.000000 12.750000 C0.000000 12.953126 0.074218 13.128906 0.222656 13.277344 C0.371094 13.425782 0.546874 13.500000 0.750000 13.500000 L14.250000 13.500000 C14.453126 13.500000 14.628906 13.425782 14.777344 13.277344 C14.925782 13.128906 15.000000 12.953126 15.000000 12.750000 C15.000000 12.546874 14.925782 12.371094 14.777344 12.222656 C14.628906 12.074218 14.453126 12.000000 14.250000 12.000000 Z M14.250000 6.000000 L0.750000 6.000000 C0.546874 6.000000 0.371094 6.074218 0.222656 6.222656 C0.074218 6.371094 0.000000 6.546874 0.000000 6.750000 C0.000000 6.953126 0.074218 7.128906 0.222656 7.277344 C0.371094 7.425782 0.546874 7.500000 0.750000 7.500000 L14.250000 7.500000 C14.453126 7.500000 14.628906 7.425782 14.777344 7.277344 C14.925782 7.128906 15.000000 6.953126 15.000000 6.750000 C15.000000 6.546874 14.925782 6.371094 14.777344 6.222656 C14.628906 6.074218 14.453126 6.000000 14.250000 6.000000 Z M19.500000 17.250000" style="fill:black"/>
</svg>